<svg width="17" height="19" viewBox="0 0 17 19" fill="none" xmlns="http://www.w3.org/2000/svg">
<path d="M13.7604 18.125C12.7396 19.1146 11.625 18.9583 10.5521 18.4896C9.41667 18.0104 8.37501 17.9896 7.17709 18.4896C5.67709 19.1354 4.88542 18.9479 3.98959 18.125C-1.09374 12.8854 -0.343742 4.90625 5.42709 4.61458C6.83334 4.6875 7.81251 5.38542 8.63542 5.44792C9.86459 5.19792 11.0417 4.47917 12.3542 4.57292C13.9271 4.69792 15.1146 5.32292 15.8958 6.44792C12.6458 8.39583 13.4167 12.6771 16.3958 13.875C15.8021 15.4375 15.0313 16.9896 13.75 18.1354L13.7604 18.125ZM8.53126 4.55208C8.37501 2.22917 10.2604 0.3125 12.4271 0.125C12.7292 2.8125 9.98959 4.8125 8.53126 4.55208Z" fill="black"/>
</svg>
