<svg width="63" height="63" viewBox="0 0 63 63" fill="none" xmlns="http://www.w3.org/2000/svg">
<g filter="url(#filter0_d_10_460)">
<rect x="4.5" y="3.5" width="54" height="54" rx="27" stroke="#F2F2F2" shape-rendering="crispEdges"/>
<g clip-path="url(#clip0_10_460)">
<path d="M27.709 18.8223C25.2111 19.6889 23.0569 21.3336 21.5629 23.5149C20.0689 25.6962 19.3137 28.2992 19.4083 30.9414C19.5029 33.5836 20.4424 36.1259 22.0887 38.1947C23.7349 40.2636 26.0012 41.75 28.5547 42.4356C30.6249 42.9698 32.7938 42.9933 34.875 42.504C36.7604 42.0805 38.5035 41.1746 39.9336 39.8751C41.4221 38.4812 42.5024 36.708 43.0586 34.7462C43.6632 32.6127 43.7707 30.3691 43.3731 28.1876H31.7481V33.0098H38.4805C38.3459 33.779 38.0576 34.513 37.6327 35.1681C37.2079 35.8232 36.6552 36.3858 36.0078 36.8223C35.1857 37.3662 34.259 37.7321 33.2871 37.8966C32.3124 38.0778 31.3126 38.0778 30.3379 37.8966C29.35 37.6923 28.4155 37.2846 27.5938 36.6993C26.2738 35.7649 25.2826 34.4374 24.7617 32.9063C24.2321 31.3466 24.2321 29.6556 24.7617 28.0958C25.1325 27.0025 25.7454 26.007 26.5547 25.1837C27.4809 24.2242 28.6534 23.5384 29.9437 23.2014C31.234 22.8644 32.5921 22.8894 33.8692 23.2735C34.8668 23.5798 35.779 24.1148 36.5332 24.836C37.2923 24.0808 38.0502 23.3236 38.8067 22.5645C39.1973 22.1563 39.6231 21.7677 40.0078 21.3497C38.8566 20.2784 37.5053 19.4447 36.0313 18.8966C33.3471 17.9219 30.4101 17.8957 27.709 18.8223Z" fill="white"/>
<path d="M27.709 18.8223C30.4099 17.8951 33.3469 17.9206 36.0312 18.8946C37.5055 19.4465 38.8562 20.2841 40.0059 21.3594C39.6152 21.7774 39.2031 22.168 38.8047 22.5743C38.0469 23.3308 37.2897 24.0847 36.5332 24.836C35.779 24.1148 34.8667 23.5797 33.8691 23.2735C32.5925 22.888 31.2344 22.8616 29.9438 23.1972C28.6532 23.5328 27.4799 24.2174 26.5527 25.1758C25.7434 25.9991 25.1305 26.9946 24.7598 28.0879L20.7109 24.9532C22.1602 22.0793 24.6694 19.881 27.709 18.8223Z" fill="#E33629"/>
<path d="M19.6367 28.0586C19.8543 26.9801 20.2156 25.9356 20.7109 24.9531L24.7598 28.0957C24.2301 29.6555 24.2301 31.3465 24.7598 32.9062C23.4108 33.9479 22.0612 34.9948 20.7109 36.0469C19.471 33.5787 19.0928 30.7666 19.6367 28.0586Z" fill="#F8BD00"/>
<path d="M31.7481 28.1855H43.3731C43.7707 30.3671 43.6631 32.6107 43.0586 34.7441C42.5024 36.706 41.422 38.4792 39.9336 39.873C38.627 38.8535 37.3145 37.8418 36.0078 36.8223C36.6556 36.3853 37.2085 35.8221 37.6334 35.1663C38.0583 34.5105 38.3464 33.7757 38.4805 33.0059H31.7481C31.7461 31.4004 31.7481 29.793 31.7481 28.1855Z" fill="#587DBD"/>
<path d="M20.709 36.0469C22.0592 35.0052 23.4089 33.9583 24.7578 32.9062C25.2797 34.4379 26.2723 35.7654 27.5938 36.6992C28.418 37.2818 29.3546 37.6862 30.3438 37.8867C31.3185 38.068 32.3182 38.068 33.293 37.8867C34.2648 37.7222 35.1916 37.3563 36.0137 36.8125C37.3203 37.832 38.6328 38.8438 39.9395 39.8633C38.5096 41.1635 36.7664 42.0701 34.8809 42.4941C32.7996 42.9834 30.6307 42.96 28.5605 42.4258C26.9232 41.9886 25.3939 41.218 24.0684 40.1621C22.6654 39.0482 21.5194 37.6445 20.709 36.0469Z" fill="#319F43"/>
</g>
</g>
<defs>
<filter id="filter0_d_10_460" x="0" y="0" width="63" height="63" filterUnits="userSpaceOnUse" color-interpolation-filters="sRGB">
<feFlood flood-opacity="0" result="BackgroundImageFix"/>
<feColorMatrix in="SourceAlpha" type="matrix" values="0 0 0 0 0 0 0 0 0 0 0 0 0 0 0 0 0 0 127 0" result="hardAlpha"/>
<feOffset dy="1"/>
<feGaussianBlur stdDeviation="2"/>
<feComposite in2="hardAlpha" operator="out"/>
<feColorMatrix type="matrix" values="0 0 0 0 0.0470588 0 0 0 0 0.0470588 0 0 0 0 0.0509804 0 0 0 0.05 0"/>
<feBlend mode="normal" in2="BackgroundImageFix" result="effect1_dropShadow_10_460"/>
<feBlend mode="normal" in="SourceGraphic" in2="effect1_dropShadow_10_460" result="shape"/>
</filter>
<clipPath id="clip0_10_460">
<rect width="25" height="25" fill="white" transform="translate(19 18)"/>
</clipPath>
</defs>
</svg>
